<svg xmlns="http://www.w3.org/2000/svg" width="16" height="16" viewBox="0 0 16 16"><rect width="16" height="16" rx="3" ry="3" fill="#171717"></rect><rect x="1.920" y="1.920" width="2.643" height="2.643" rx="0.529" ry="0.529" fill="#2a97ff" opacity="0.2"></rect><rect x="5.092" y="1.920" width="2.643" height="2.643" rx="0.529" ry="0.529" fill="#2a97ff" opacity="0.32"></rect><rect x="8.264" y="1.920" width="2.643" height="2.643" rx="0.529" ry="0.529" fill="#2a97ff" opacity="0.48"></rect><rect x="11.437" y="1.920" width="2.643" height="2.643" rx="0.529" ry="0.529" fill="#2a97ff" opacity="0.65"></rect><rect x="1.920" y="5.092" width="2.643" height="2.643" rx="0.529" ry="0.529" fill="#2a97ff" opacity="0.32"></rect><rect x="5.092" y="5.092" width="2.643" height="2.643" rx="0.529" ry="0.529" fill="#2a97ff" opacity="0.48"></rect><rect x="8.264" y="5.092" width="2.643" height="2.643" rx="0.529" ry="0.529" fill="#2a97ff" opacity="0.68"></rect><rect x="11.437" y="5.092" width="2.643" height="2.643" rx="0.529" ry="0.529" fill="#2a97ff" opacity="0.85"></rect><rect x="1.920" y="8.264" width="2.643" height="2.643" rx="0.529" ry="0.529" fill="#2a97ff" opacity="0.48"></rect><rect x="5.092" y="8.264" width="2.643" height="2.643" rx="0.529" ry="0.529" fill="#2a97ff" opacity="0.68"></rect><rect x="8.264" y="8.264" width="2.643" height="2.643" rx="0.529" ry="0.529" fill="#2a97ff" opacity="0.85"></rect><rect x="11.437" y="8.264" width="2.643" height="2.643" rx="0.529" ry="0.529" fill="#2a97ff" opacity="1"></rect><rect x="1.920" y="11.437" width="2.643" height="2.643" rx="0.529" ry="0.529" fill="#2a97ff" opacity="0.65"></rect><rect x="5.092" y="11.437" width="2.643" height="2.643" rx="0.529" ry="0.529" fill="#2a97ff" opacity="0.85"></rect><rect x="8.264" y="11.437" width="2.643" height="2.643" rx="0.529" ry="0.529" fill="#2a97ff" opacity="1"></rect><rect x="11.437" y="11.437" width="2.643" height="2.643" rx="0.529" ry="0.529" fill="#2a97ff" opacity="1"></rect></svg>